# xmcd
#
# Track frame offsets:
#	182
#	18700
#	34520
#	53067
#	66047
#	82275
#	98232
#	115475
#	128007
#	147902
#	162595
#	177995
#	193117
#	214702
#	227395
#	241730
#	257982
#	275115
#	293647
#	310962
#
# Disc length: 4373 seconds
#
# Revision: 1
# Processed by: cddbd v1.4PL0 Copyright (c) Steve Scherf et al.
# Submitted via: audiograbber 1.80
#
DISCID=2a111314
DTITLE=열린음악 - 오리자날 히트가요모음  Vol.1
DYEAR=1900
DGENRE=
TTITLE0=그대 그리고 나
TTITLE1=누구라도 그러하듯이
TTITLE2=별이 빛나는 밤에
TTITLE3=다시는 돌아오지 않으리
TTITLE4=당신은 별을 보고 울어 보셨나요
TTITLE5=나는 꽃이 랍니다
TTITLE6=가을비 우산속
TTITLE7=가을을 남기고 간 사랑
TTITLE8=님은 먼곳에
TTITLE9=오지 않으리
TTITLE10=세월
TTITLE11=뜨거운 눈물
TTITLE12=험한 세상에 다리가 되어
TTITLE13=걱정마
TTITLE14=유랑자
TTITLE15=빗물
TTITLE16=널 그리며
TTITLE17=빈들
TTITLE18=기차와 소나무
TTITLE19=연극 중에서
EXTD=
EXTT0=
EXTT1=
EXTT2=
EXTT3=
EXTT4=
EXTT5=
EXTT6=
EXTT7=
EXTT8=
EXTT9=
EXTT10=
EXTT11=
EXTT12=
EXTT13=
EXTT14=
EXTT15=
EXTT16=
EXTT17=
EXTT18=
EXTT19=
PLAYORDER=
